<svg xmlns="http://www.w3.org/2000/svg" viewBox="0 -0.5 32 32" shape-rendering="crispEdges">
<metadata>Made with Pixels to Svg https://codepen.io/shshaw/pen/XbxvNj</metadata>
<path stroke="#6b4957" d="M12 6h1" />
<path stroke="#a08a94" d="M19 6h1M19 7h1M12 16h1" />
<path stroke="#010101" d="M2 7h1M29 7h1M13 8h1M19 8h1M9 10h1M13 10h1M22 10h1M2 13h1M29 13h1M11 21h1M20 21h1M11 22h1M20 22h1" />
<path stroke="#000100" d="M3 7h1M28 7h1M7 8h1M24 8h1M18 20h1" />
<path stroke="#000000" d="M4 7h2M11 7h1M13 7h1M20 7h1M26 7h2M6 8h1M11 8h2M20 8h1M25 8h1M19 11h1M1 12h1M10 12h1M19 12h1M21 12h1M30 12h1M3 13h1M10 13h1M13 13h1M18 13h2M21 13h1M28 13h1M8 14h1M14 14h3M23 14h1M6 15h2M11 15h3M18 15h3M24 15h2M11 16h1M13 16h1M18 16h1M20 16h1M4 17h1M7 17h5M18 17h1M20 17h6M28 17h1M5 18h2M14 18h2M18 18h1M26 18h2M3 19h2M11 19h3M18 19h3M28 19h2M11 20h1M13 20h1M20 20h1M17 21h1M14 22h1M17 22h1M10 23h1M15 23h2M21 23h1M10 25h1M21 25h1" />
<path stroke="#6a4954" d="M12 7h1" />
<path stroke="#020202" d="M18 7h1" />
<path stroke="#080808" d="M1 8h1M30 8h1M1 11h1M30 11h1" />
<path stroke="#f0f4f3" d="M2 8h1M29 8h1" />
<path stroke="#f3f7f6" d="M3 8h1M28 8h1" />
<path stroke="#b9d1e2" d="M4 8h1M27 8h1" />
<path stroke="#f1f4f5" d="M5 8h1M26 8h1" />
<path stroke="#000001" d="M18 8h1M14 21h1M10 24h1M21 24h1" />
<path stroke="#090909" d="M1 9h1M30 9h1M1 10h1M30 10h1M9 14h1M22 14h1" />
<path stroke="#f2f5f4" d="M2 9h1M29 9h1M2 10h1M29 10h1" />
<path stroke="#f1f4f2" d="M3 9h1M28 9h1" />
<path stroke="#698aa4" d="M4 9h1M27 9h1" />
<path stroke="#6a8da5" d="M5 9h1M26 9h1" />
<path stroke="#fdfffa" d="M6 9h1M25 9h1" />
<path stroke="#f5f7f4" d="M7 9h1M24 9h1" />
<path stroke="#010001" d="M8 9h1M23 9h1" />
<path stroke="#030402" d="M14 9h1" />
<path stroke="#060404" d="M15 9h1" />
<path stroke="#060403" d="M16 9h1" />
<path stroke="#060503" d="M17 9h1" />
<path stroke="#f3f8f6" d="M3 10h1M28 10h1" />
<path stroke="#f4f7f4" d="M4 10h1M27 10h1" />
<path stroke="#f5f3f4" d="M5 10h1M26 10h1" />
<path stroke="#6d90a5" d="M6 10h1M25 10h1" />
<path stroke="#6c8fa7" d="M7 10h1M24 10h1" />
<path stroke="#f7f8f7" d="M8 10h1M23 10h1" />
<path stroke="#bdd8e9" d="M14 10h1" />
<path stroke="#bfd6e5" d="M15 10h1" />
<path stroke="#bfd5e3" d="M16 10h1" />
<path stroke="#6d92b0" d="M17 10h1" />
<path stroke="#090605" d="M18 10h1" />
<path stroke="#f1f3f3" d="M2 11h1M29 11h1" />
<path stroke="#f4f6f6" d="M3 11h1M28 11h1" />
<path stroke="#f3f6f4" d="M4 11h1M27 11h1" />
<path stroke="#bcd2e0" d="M5 11h1M26 11h1" />
<path stroke="#f2f3f3" d="M6 11h1M25 11h1" />
<path stroke="#bcd4df" d="M7 11h1M24 11h1" />
<path stroke="#6c90ac" d="M8 11h1M23 11h1" />
<path stroke="#000101" d="M9 11h1M22 11h1M13 18h1" />
<path stroke="#030303" d="M12 11h1" />
<path stroke="#c8b8be" d="M13 11h1" />
<path stroke="#6c4a54" d="M14 11h1" />
<path stroke="#bed3e3" d="M15 11h1" />
<path stroke="#bed3e2" d="M16 11h1" />
<path stroke="#c5babe" d="M17 11h1" />
<path stroke="#6c4a57" d="M18 11h1" />
<path stroke="#546470" d="M2 12h1M29 12h1" />
<path stroke="#6b757b" d="M3 12h1M28 12h1" />
<path stroke="#d5e1ea" d="M4 12h1M27 12h1" />
<path stroke="#f2f5f6" d="M5 12h1M26 12h1" />
<path stroke="#f3f6f6" d="M6 12h2M24 12h2" />
<path stroke="#cad8e3" d="M8 12h1M23 12h1" />
<path stroke="#9b9c9d" d="M9 12h1M22 12h1" />
<path stroke="#050505" d="M12 12h1M12 13h1" />
<path stroke="#c9b8c0" d="M13 12h1" />
<path stroke="#6c4955" d="M14 12h1" />
<path stroke="#bfd4e3" d="M15 12h1" />
<path stroke="#bed2e2" d="M16 12h1" />
<path stroke="#6a4655" d="M17 12h1" />
<path stroke="#6c4a56" d="M18 12h1" />
<path stroke="#5f8097" d="M4 13h1M27 13h1" />
<path stroke="#86a9bc" d="M5 13h1M26 13h1" />
<path stroke="#b9d0e0" d="M6 13h1M25 13h1" />
<path stroke="#b9d0de" d="M7 13h1M24 13h1" />
<path stroke="#bad2dd" d="M8 13h1M23 13h1" />
<path stroke="#f6f8f8" d="M9 13h1M22 13h1" />
<path stroke="#bdd4e1" d="M14 13h1" />
<path stroke="#bed3e0" d="M15 13h1" />
<path stroke="#bfd4e0" d="M16 13h1" />
<path stroke="#6a90a6" d="M17 13h1" />
<path stroke="#0d0d0d" d="M4 14h1M27 14h1" />
<path stroke="#0c0c0c" d="M5 14h1M26 14h1" />
<path stroke="#628190" d="M6 14h1M25 14h1" />
<path stroke="#617d91" d="M7 14h1M24 14h1" />
<path stroke="#0e0e0e" d="M10 14h1M21 14h1" />
<path stroke="#040304" d="M17 14h1" />
<path stroke="#c6b8bd" d="M14 15h1" />
<path stroke="#c7b6bb" d="M15 15h1" />
<path stroke="#694954" d="M16 15h1" />
<path stroke="#6a4654" d="M17 15h1" />
<path stroke="#c9b9c1" d="M14 16h1" />
<path stroke="#cab8be" d="M15 16h1" />
<path stroke="#6a4857" d="M16 16h1M19 16h1M16 17h1" />
<path stroke="#6a4656" d="M17 16h1" />
<path stroke="#040404" d="M12 17h1M19 17h1" />
<path stroke="#010000" d="M13 17h1" />
<path stroke="#cab8c0" d="M14 17h1" />
<path stroke="#c7b6bf" d="M15 17h1" />
<path stroke="#684855" d="M17 17h1" />
<path stroke="#030404" d="M12 18h1M19 18h1" />
<path stroke="#694857" d="M16 18h1" />
<path stroke="#694755" d="M17 18h1" />
<path stroke="#cab8bf" d="M14 19h1" />
<path stroke="#ccbbc1" d="M15 19h1" />
<path stroke="#6a4757" d="M16 19h1" />
<path stroke="#694655" d="M17 19h1" />
<path stroke="#907682" d="M14 20h1" />
<path stroke="#6b4757" d="M15 20h1" />
<path stroke="#694a57" d="M16 20h1" />
<path stroke="#694955" d="M17 20h1" />
<path stroke="#684857" d="M15 21h1" />
<path stroke="#694a56" d="M16 21h1" />
<path stroke="#694957" d="M15 22h1" />
<path stroke="#674954" d="M16 22h1" />
<path stroke="#030203" d="M9 26h1M22 26h1" />
</svg>
